%TF.GenerationSoftware,KiCad,Pcbnew,6.0.2+dfsg-1*%
%TF.CreationDate,2023-02-23T16:44:58-06:00*%
%TF.ProjectId,communication_subsystem_v2,636f6d6d-756e-4696-9361-74696f6e5f73,rev?*%
%TF.SameCoordinates,Original*%
%TF.FileFunction,Copper,L2,Bot*%
%TF.FilePolarity,Positive*%
%FSLAX46Y46*%
G04 Gerber Fmt 4.6, Leading zero omitted, Abs format (unit mm)*
G04 Created by KiCad (PCBNEW 6.0.2+dfsg-1) date 2023-02-23 16:44:58*
%MOMM*%
%LPD*%
G01*
G04 APERTURE LIST*
%TA.AperFunction,ComponentPad*%
%ADD10C,2.000000*%
%TD*%
%TA.AperFunction,ComponentPad*%
%ADD11R,1.700000X1.700000*%
%TD*%
%TA.AperFunction,ComponentPad*%
%ADD12O,1.700000X1.700000*%
%TD*%
%TA.AperFunction,ComponentPad*%
%ADD13C,1.600000*%
%TD*%
%TA.AperFunction,ComponentPad*%
%ADD14O,1.600000X1.600000*%
%TD*%
%TA.AperFunction,ComponentPad*%
%ADD15R,1.727200X1.727200*%
%TD*%
%TA.AperFunction,ComponentPad*%
%ADD16O,1.727200X1.727200*%
%TD*%
%TA.AperFunction,ViaPad*%
%ADD17C,0.800000*%
%TD*%
%TA.AperFunction,Conductor*%
%ADD18C,0.250000*%
%TD*%
G04 APERTURE END LIST*
D10*
%TO.P,SW2,1,1*%
%TO.N,/GPIO0*%
X161290000Y-57840000D03*
X154790000Y-57840000D03*
%TO.P,SW2,2,2*%
%TO.N,Net-(R3-Pad2)*%
X161290000Y-53340000D03*
X154790000Y-53340000D03*
%TD*%
D11*
%TO.P,J1,1,Pin_1*%
%TO.N,/esp8266_tx*%
X203200000Y-74930000D03*
D12*
%TO.P,J1,2,Pin_2*%
%TO.N,/esp8266_rx*%
X203200000Y-72390000D03*
%TD*%
D13*
%TO.P,R1,1*%
%TO.N,+3V3*%
X166370000Y-72390000D03*
D14*
%TO.P,R1,2*%
%TO.N,/rst*%
X176530000Y-72390000D03*
%TD*%
D13*
%TO.P,R3,1*%
%TO.N,GND*%
X168910000Y-48260000D03*
D14*
%TO.P,R3,2*%
%TO.N,Net-(R3-Pad2)*%
X158750000Y-48260000D03*
%TD*%
D15*
%TO.P,U1,1,UTXD*%
%TO.N,/esp8266_tx*%
X187960000Y-66040000D03*
D16*
%TO.P,U1,2,GND*%
%TO.N,GND*%
X187960000Y-63500000D03*
%TO.P,U1,3,CH_PD*%
%TO.N,/EN*%
X190500000Y-66040000D03*
%TO.P,U1,4,GPIO2*%
%TO.N,unconnected-(U1-Pad4)*%
X190500000Y-63500000D03*
%TO.P,U1,5,RST*%
%TO.N,/rst*%
X193040000Y-66040000D03*
%TO.P,U1,6,GPIO0*%
%TO.N,/GPIO0*%
X193040000Y-63500000D03*
%TO.P,U1,7,VCC*%
%TO.N,+3V3*%
X195580000Y-66040000D03*
%TO.P,U1,8,URXD*%
%TO.N,/esp8266_rx*%
X195580000Y-63500000D03*
%TD*%
D13*
%TO.P,R4,1*%
%TO.N,+3V3*%
X161290000Y-72390000D03*
D14*
%TO.P,R4,2*%
%TO.N,/GPIO0*%
X161290000Y-62230000D03*
%TD*%
D11*
%TO.P,J2,1,Pin_1*%
%TO.N,+3V3*%
X147320000Y-66040000D03*
D12*
%TO.P,J2,2,Pin_2*%
%TO.N,GND*%
X147320000Y-63500000D03*
%TD*%
D10*
%TO.P,SW1,1,1*%
%TO.N,GND*%
X176530000Y-53340000D03*
X170030000Y-53340000D03*
%TO.P,SW1,2,2*%
%TO.N,/rst*%
X176530000Y-57840000D03*
X170030000Y-57840000D03*
%TD*%
D13*
%TO.P,R2,1*%
%TO.N,+3V3*%
X171450000Y-67310000D03*
D14*
%TO.P,R2,2*%
%TO.N,/EN*%
X181610000Y-67310000D03*
%TD*%
D17*
%TO.N,GND*%
X149860000Y-77470000D03*
X170180000Y-43180000D03*
X153670000Y-66040000D03*
X153670000Y-81280000D03*
X146050000Y-81280000D03*
X181610000Y-46990000D03*
X176530000Y-81280000D03*
X203200000Y-59690000D03*
X165100000Y-62230000D03*
X153670000Y-43180000D03*
X203200000Y-53340000D03*
X157480000Y-77470000D03*
X195580000Y-77470000D03*
X149860000Y-53340000D03*
X157480000Y-62230000D03*
X161290000Y-81280000D03*
X165100000Y-77470000D03*
X199390000Y-81280000D03*
X203200000Y-46990000D03*
X191770000Y-81280000D03*
X162560000Y-43180000D03*
X173990000Y-46990000D03*
X177800000Y-43180000D03*
X172720000Y-62230000D03*
X184150000Y-81280000D03*
X168910000Y-81280000D03*
X149860000Y-46990000D03*
X203200000Y-66040000D03*
X146050000Y-43180000D03*
X180340000Y-62230000D03*
%TD*%
D18*
%TO.N,/esp8266_tx*%
X187960000Y-66040000D02*
X187960000Y-67310000D01*
X187960000Y-67310000D02*
X195580000Y-74930000D01*
X195580000Y-74930000D02*
X203200000Y-74930000D01*
%TO.N,/rst*%
X170180000Y-57990000D02*
X170030000Y-57840000D01*
%TD*%
%TA.AperFunction,Conductor*%
%TO.N,GND*%
G36*
X206444121Y-41168002D02*
G01*
X206490614Y-41221658D01*
X206502000Y-41274000D01*
X206502000Y-83186000D01*
X206481998Y-83254121D01*
X206428342Y-83300614D01*
X206376000Y-83312000D01*
X144144000Y-83312000D01*
X144075879Y-83291998D01*
X144029386Y-83238342D01*
X144018000Y-83186000D01*
X144018000Y-72390000D01*
X159976502Y-72390000D01*
X159996457Y-72618087D01*
X159997881Y-72623400D01*
X159997881Y-72623402D01*
X160045851Y-72802425D01*
X160055716Y-72839243D01*
X160058039Y-72844224D01*
X160058039Y-72844225D01*
X160150151Y-73041762D01*
X160150154Y-73041767D01*
X160152477Y-73046749D01*
X160155634Y-73051257D01*
X160259078Y-73198990D01*
X160283802Y-73234300D01*
X160445700Y-73396198D01*
X160450208Y-73399355D01*
X160450211Y-73399357D01*
X160495649Y-73431173D01*
X160633251Y-73527523D01*
X160638233Y-73529846D01*
X160638238Y-73529849D01*
X160758896Y-73586112D01*
X160840757Y-73624284D01*
X160846065Y-73625706D01*
X160846067Y-73625707D01*
X161056598Y-73682119D01*
X161056600Y-73682119D01*
X161061913Y-73683543D01*
X161290000Y-73703498D01*
X161518087Y-73683543D01*
X161523400Y-73682119D01*
X161523402Y-73682119D01*
X161733933Y-73625707D01*
X161733935Y-73625706D01*
X161739243Y-73624284D01*
X161821104Y-73586112D01*
X161941762Y-73529849D01*
X161941767Y-73529846D01*
X161946749Y-73527523D01*
X162084351Y-73431173D01*
X162129789Y-73399357D01*
X162129792Y-73399355D01*
X162134300Y-73396198D01*
X162296198Y-73234300D01*
X162320923Y-73198990D01*
X162424366Y-73051257D01*
X162427523Y-73046749D01*
X162429846Y-73041767D01*
X162429849Y-73041762D01*
X162521961Y-72844225D01*
X162521961Y-72844224D01*
X162524284Y-72839243D01*
X162534150Y-72802425D01*
X162582119Y-72623402D01*
X162582119Y-72623400D01*
X162583543Y-72618087D01*
X162603498Y-72390000D01*
X165056502Y-72390000D01*
X165076457Y-72618087D01*
X165077881Y-72623400D01*
X165077881Y-72623402D01*
X165125851Y-72802425D01*
X165135716Y-72839243D01*
X165138039Y-72844224D01*
X165138039Y-72844225D01*
X165230151Y-73041762D01*
X165230154Y-73041767D01*
X165232477Y-73046749D01*
X165235634Y-73051257D01*
X165339078Y-73198990D01*
X165363802Y-73234300D01*
X165525700Y-73396198D01*
X165530208Y-73399355D01*
X165530211Y-73399357D01*
X165575649Y-73431173D01*
X165713251Y-73527523D01*
X165718233Y-73529846D01*
X165718238Y-73529849D01*
X165838896Y-73586112D01*
X165920757Y-73624284D01*
X165926065Y-73625706D01*
X165926067Y-73625707D01*
X166136598Y-73682119D01*
X166136600Y-73682119D01*
X166141913Y-73683543D01*
X166370000Y-73703498D01*
X166598087Y-73683543D01*
X166603400Y-73682119D01*
X166603402Y-73682119D01*
X166813933Y-73625707D01*
X166813935Y-73625706D01*
X166819243Y-73624284D01*
X166901104Y-73586112D01*
X167021762Y-73529849D01*
X167021767Y-73529846D01*
X167026749Y-73527523D01*
X167164351Y-73431173D01*
X167209789Y-73399357D01*
X167209792Y-73399355D01*
X167214300Y-73396198D01*
X167376198Y-73234300D01*
X167400923Y-73198990D01*
X167504366Y-73051257D01*
X167507523Y-73046749D01*
X167509846Y-73041767D01*
X167509849Y-73041762D01*
X167601961Y-72844225D01*
X167601961Y-72844224D01*
X167604284Y-72839243D01*
X167614150Y-72802425D01*
X167662119Y-72623402D01*
X167662119Y-72623400D01*
X167663543Y-72618087D01*
X167683498Y-72390000D01*
X175216502Y-72390000D01*
X175236457Y-72618087D01*
X175237881Y-72623400D01*
X175237881Y-72623402D01*
X175285851Y-72802425D01*
X175295716Y-72839243D01*
X175298039Y-72844224D01*
X175298039Y-72844225D01*
X175390151Y-73041762D01*
X175390154Y-73041767D01*
X175392477Y-73046749D01*
X175395634Y-73051257D01*
X175499078Y-73198990D01*
X175523802Y-73234300D01*
X175685700Y-73396198D01*
X175690208Y-73399355D01*
X175690211Y-73399357D01*
X175735649Y-73431173D01*
X175873251Y-73527523D01*
X175878233Y-73529846D01*
X175878238Y-73529849D01*
X175998896Y-73586112D01*
X176080757Y-73624284D01*
X176086065Y-73625706D01*
X176086067Y-73625707D01*
X176296598Y-73682119D01*
X176296600Y-73682119D01*
X176301913Y-73683543D01*
X176530000Y-73703498D01*
X176758087Y-73683543D01*
X176763400Y-73682119D01*
X176763402Y-73682119D01*
X176973933Y-73625707D01*
X176973935Y-73625706D01*
X176979243Y-73624284D01*
X177061104Y-73586112D01*
X177181762Y-73529849D01*
X177181767Y-73529846D01*
X177186749Y-73527523D01*
X177324351Y-73431173D01*
X177369789Y-73399357D01*
X177369792Y-73399355D01*
X177374300Y-73396198D01*
X177536198Y-73234300D01*
X177560923Y-73198990D01*
X177664366Y-73051257D01*
X177667523Y-73046749D01*
X177669846Y-73041767D01*
X177669849Y-73041762D01*
X177761961Y-72844225D01*
X177761961Y-72844224D01*
X177764284Y-72839243D01*
X177774150Y-72802425D01*
X177822119Y-72623402D01*
X177822119Y-72623400D01*
X177823543Y-72618087D01*
X177843498Y-72390000D01*
X177823543Y-72161913D01*
X177817593Y-72139707D01*
X177765707Y-71946067D01*
X177765706Y-71946065D01*
X177764284Y-71940757D01*
X177752092Y-71914610D01*
X177669849Y-71738238D01*
X177669846Y-71738233D01*
X177667523Y-71733251D01*
X177594098Y-71628389D01*
X177539357Y-71550211D01*
X177539355Y-71550208D01*
X177536198Y-71545700D01*
X177374300Y-71383802D01*
X177369792Y-71380645D01*
X177369789Y-71380643D01*
X177291611Y-71325902D01*
X177186749Y-71252477D01*
X177181767Y-71250154D01*
X177181762Y-71250151D01*
X176984225Y-71158039D01*
X176984224Y-71158039D01*
X176979243Y-71155716D01*
X176973935Y-71154294D01*
X176973933Y-71154293D01*
X176763402Y-71097881D01*
X176763400Y-71097881D01*
X176758087Y-71096457D01*
X176530000Y-71076502D01*
X176301913Y-71096457D01*
X176296600Y-71097881D01*
X176296598Y-71097881D01*
X176086067Y-71154293D01*
X176086065Y-71154294D01*
X176080757Y-71155716D01*
X176075776Y-71158039D01*
X176075775Y-71158039D01*
X175878238Y-71250151D01*
X175878233Y-71250154D01*
X175873251Y-71252477D01*
X175768389Y-71325902D01*
X175690211Y-71380643D01*
X175690208Y-71380645D01*
X175685700Y-71383802D01*
X175523802Y-71545700D01*
X175520645Y-71550208D01*
X175520643Y-71550211D01*
X175465902Y-71628389D01*
X175392477Y-71733251D01*
X175390154Y-71738233D01*
X175390151Y-71738238D01*
X175307908Y-71914610D01*
X175295716Y-71940757D01*
X175294294Y-71946065D01*
X175294293Y-71946067D01*
X175242407Y-72139707D01*
X175236457Y-72161913D01*
X175216502Y-72390000D01*
X167683498Y-72390000D01*
X167663543Y-72161913D01*
X167657593Y-72139707D01*
X167605707Y-71946067D01*
X167605706Y-71946065D01*
X167604284Y-71940757D01*
X167592092Y-71914610D01*
X167509849Y-71738238D01*
X167509846Y-71738233D01*
X167507523Y-71733251D01*
X167434098Y-71628389D01*
X167379357Y-71550211D01*
X167379355Y-71550208D01*
X167376198Y-71545700D01*
X167214300Y-71383802D01*
X167209792Y-71380645D01*
X167209789Y-71380643D01*
X167131611Y-71325902D01*
X167026749Y-71252477D01*
X167021767Y-71250154D01*
X167021762Y-71250151D01*
X166824225Y-71158039D01*
X166824224Y-71158039D01*
X166819243Y-71155716D01*
X166813935Y-71154294D01*
X166813933Y-71154293D01*
X166603402Y-71097881D01*
X166603400Y-71097881D01*
X166598087Y-71096457D01*
X166370000Y-71076502D01*
X166141913Y-71096457D01*
X166136600Y-71097881D01*
X166136598Y-71097881D01*
X165926067Y-71154293D01*
X165926065Y-71154294D01*
X165920757Y-71155716D01*
X165915776Y-71158039D01*
X165915775Y-71158039D01*
X165718238Y-71250151D01*
X165718233Y-71250154D01*
X165713251Y-71252477D01*
X165608389Y-71325902D01*
X165530211Y-71380643D01*
X165530208Y-71380645D01*
X165525700Y-71383802D01*
X165363802Y-71545700D01*
X165360645Y-71550208D01*
X165360643Y-71550211D01*
X165305902Y-71628389D01*
X165232477Y-71733251D01*
X165230154Y-71738233D01*
X165230151Y-71738238D01*
X165147908Y-71914610D01*
X165135716Y-71940757D01*
X165134294Y-71946065D01*
X165134293Y-71946067D01*
X165082407Y-72139707D01*
X165076457Y-72161913D01*
X165056502Y-72390000D01*
X162603498Y-72390000D01*
X162583543Y-72161913D01*
X162577593Y-72139707D01*
X162525707Y-71946067D01*
X162525706Y-71946065D01*
X162524284Y-71940757D01*
X162512092Y-71914610D01*
X162429849Y-71738238D01*
X162429846Y-71738233D01*
X162427523Y-71733251D01*
X162354098Y-71628389D01*
X162299357Y-71550211D01*
X162299355Y-71550208D01*
X162296198Y-71545700D01*
X162134300Y-71383802D01*
X162129792Y-71380645D01*
X162129789Y-71380643D01*
X162051611Y-71325902D01*
X161946749Y-71252477D01*
X161941767Y-71250154D01*
X161941762Y-71250151D01*
X161744225Y-71158039D01*
X161744224Y-71158039D01*
X161739243Y-71155716D01*
X161733935Y-71154294D01*
X161733933Y-71154293D01*
X161523402Y-71097881D01*
X161523400Y-71097881D01*
X161518087Y-71096457D01*
X161290000Y-71076502D01*
X161061913Y-71096457D01*
X161056600Y-71097881D01*
X161056598Y-71097881D01*
X160846067Y-71154293D01*
X160846065Y-71154294D01*
X160840757Y-71155716D01*
X160835776Y-71158039D01*
X160835775Y-71158039D01*
X160638238Y-71250151D01*
X160638233Y-71250154D01*
X160633251Y-71252477D01*
X160528389Y-71325902D01*
X160450211Y-71380643D01*
X160450208Y-71380645D01*
X160445700Y-71383802D01*
X160283802Y-71545700D01*
X160280645Y-71550208D01*
X160280643Y-71550211D01*
X160225902Y-71628389D01*
X160152477Y-71733251D01*
X160150154Y-71738233D01*
X160150151Y-71738238D01*
X160067908Y-71914610D01*
X160055716Y-71940757D01*
X160054294Y-71946065D01*
X160054293Y-71946067D01*
X160002407Y-72139707D01*
X159996457Y-72161913D01*
X159976502Y-72390000D01*
X144018000Y-72390000D01*
X144018000Y-66938134D01*
X145961500Y-66938134D01*
X145968255Y-67000316D01*
X146019385Y-67136705D01*
X146106739Y-67253261D01*
X146223295Y-67340615D01*
X146359684Y-67391745D01*
X146421866Y-67398500D01*
X148218134Y-67398500D01*
X148280316Y-67391745D01*
X148416705Y-67340615D01*
X148457554Y-67310000D01*
X170136502Y-67310000D01*
X170156457Y-67538087D01*
X170157881Y-67543400D01*
X170157881Y-67543402D01*
X170213818Y-67752158D01*
X170215716Y-67759243D01*
X170218039Y-67764224D01*
X170218039Y-67764225D01*
X170310151Y-67961762D01*
X170310154Y-67961767D01*
X170312477Y-67966749D01*
X170443802Y-68154300D01*
X170605700Y-68316198D01*
X170610208Y-68319355D01*
X170610211Y-68319357D01*
X170688389Y-68374098D01*
X170793251Y-68447523D01*
X170798233Y-68449846D01*
X170798238Y-68449849D01*
X170995775Y-68541961D01*
X171000757Y-68544284D01*
X171006065Y-68545706D01*
X171006067Y-68545707D01*
X171216598Y-68602119D01*
X171216600Y-68602119D01*
X171221913Y-68603543D01*
X171450000Y-68623498D01*
X171678087Y-68603543D01*
X171683400Y-68602119D01*
X171683402Y-68602119D01*
X171893933Y-68545707D01*
X171893935Y-68545706D01*
X171899243Y-68544284D01*
X171904225Y-68541961D01*
X172101762Y-68449849D01*
X172101767Y-68449846D01*
X172106749Y-68447523D01*
X172211611Y-68374098D01*
X172289789Y-68319357D01*
X172289792Y-68319355D01*
X172294300Y-68316198D01*
X172456198Y-68154300D01*
X172587523Y-67966749D01*
X172589846Y-67961767D01*
X172589849Y-67961762D01*
X172681961Y-67764225D01*
X172681961Y-67764224D01*
X172684284Y-67759243D01*
X172686183Y-67752158D01*
X172742119Y-67543402D01*
X172742119Y-67543400D01*
X172743543Y-67538087D01*
X172763498Y-67310000D01*
X180296502Y-67310000D01*
X180316457Y-67538087D01*
X180317881Y-67543400D01*
X180317881Y-67543402D01*
X180373818Y-67752158D01*
X180375716Y-67759243D01*
X180378039Y-67764224D01*
X180378039Y-67764225D01*
X180470151Y-67961762D01*
X180470154Y-67961767D01*
X180472477Y-67966749D01*
X180603802Y-68154300D01*
X180765700Y-68316198D01*
X180770208Y-68319355D01*
X180770211Y-68319357D01*
X180848389Y-68374098D01*
X180953251Y-68447523D01*
X180958233Y-68449846D01*
X180958238Y-68449849D01*
X181155775Y-68541961D01*
X181160757Y-68544284D01*
X181166065Y-68545706D01*
X181166067Y-68545707D01*
X181376598Y-68602119D01*
X181376600Y-68602119D01*
X181381913Y-68603543D01*
X181610000Y-68623498D01*
X181838087Y-68603543D01*
X181843400Y-68602119D01*
X181843402Y-68602119D01*
X182053933Y-68545707D01*
X182053935Y-68545706D01*
X182059243Y-68544284D01*
X182064225Y-68541961D01*
X182261762Y-68449849D01*
X182261767Y-68449846D01*
X182266749Y-68447523D01*
X182371611Y-68374098D01*
X182449789Y-68319357D01*
X182449792Y-68319355D01*
X182454300Y-68316198D01*
X182616198Y-68154300D01*
X182747523Y-67966749D01*
X182749846Y-67961767D01*
X182749849Y-67961762D01*
X182841961Y-67764225D01*
X182841961Y-67764224D01*
X182844284Y-67759243D01*
X182846183Y-67752158D01*
X182902119Y-67543402D01*
X182902119Y-67543400D01*
X182903543Y-67538087D01*
X182923498Y-67310000D01*
X182903543Y-67081913D01*
X182902119Y-67076598D01*
X182868662Y-66951734D01*
X186587900Y-66951734D01*
X186594655Y-67013916D01*
X186645785Y-67150305D01*
X186733139Y-67266861D01*
X186849695Y-67354215D01*
X186986084Y-67405345D01*
X187048266Y-67412100D01*
X187233448Y-67412100D01*
X187301569Y-67432102D01*
X187350600Y-67491716D01*
X187357804Y-67509911D01*
X187361649Y-67521142D01*
X187373982Y-67563593D01*
X187378015Y-67570412D01*
X187378017Y-67570417D01*
X187384293Y-67581028D01*
X187392988Y-67598776D01*
X187400448Y-67617617D01*
X187405110Y-67624033D01*
X187405110Y-67624034D01*
X187426436Y-67653387D01*
X187432952Y-67663307D01*
X187455458Y-67701362D01*
X187469779Y-67715683D01*
X187482619Y-67730716D01*
X187494528Y-67747107D01*
X187509198Y-67759243D01*
X187528605Y-67775298D01*
X187537384Y-67783288D01*
X195076343Y-75322247D01*
X195083887Y-75330537D01*
X195088000Y-75337018D01*
X195093777Y-75342443D01*
X195137667Y-75383658D01*
X195140509Y-75386413D01*
X195160230Y-75406134D01*
X195163425Y-75408612D01*
X195172447Y-75416318D01*
X195204679Y-75446586D01*
X195211628Y-75450406D01*
X195222432Y-75456346D01*
X195238956Y-75467199D01*
X195254959Y-75479613D01*
X195295543Y-75497176D01*
X195306173Y-75502383D01*
X195344940Y-75523695D01*
X195352617Y-75525666D01*
X195352622Y-75525668D01*
X195364558Y-75528732D01*
X195383266Y-75535137D01*
X195401855Y-75543181D01*
X195409680Y-75544420D01*
X195409682Y-75544421D01*
X195445519Y-75550097D01*
X195457140Y-75552504D01*
X195492289Y-75561528D01*
X195499970Y-75563500D01*
X195520231Y-75563500D01*
X195539940Y-75565051D01*
X195559943Y-75568219D01*
X195567835Y-75567473D01*
X195573062Y-75566979D01*
X195603954Y-75564059D01*
X195615811Y-75563500D01*
X201715500Y-75563500D01*
X201783621Y-75583502D01*
X201830114Y-75637158D01*
X201841500Y-75689500D01*
X201841500Y-75828134D01*
X201848255Y-75890316D01*
X201899385Y-76026705D01*
X201986739Y-76143261D01*
X202103295Y-76230615D01*
X202239684Y-76281745D01*
X202301866Y-76288500D01*
X204098134Y-76288500D01*
X204160316Y-76281745D01*
X204296705Y-76230615D01*
X204413261Y-76143261D01*
X204500615Y-76026705D01*
X204551745Y-75890316D01*
X204558500Y-75828134D01*
X204558500Y-74031866D01*
X204551745Y-73969684D01*
X204500615Y-73833295D01*
X204413261Y-73716739D01*
X204296705Y-73629385D01*
X204276902Y-73621961D01*
X204178203Y-73584960D01*
X204121439Y-73542318D01*
X204096739Y-73475756D01*
X204111947Y-73406408D01*
X204133493Y-73377727D01*
X204234435Y-73277137D01*
X204238096Y-73273489D01*
X204269498Y-73229789D01*
X204365435Y-73096277D01*
X204368453Y-73092077D01*
X204388628Y-73051257D01*
X204465136Y-72896453D01*
X204465137Y-72896451D01*
X204467430Y-72891811D01*
X204532370Y-72678069D01*
X204561529Y-72456590D01*
X204563156Y-72390000D01*
X204544852Y-72167361D01*
X204490431Y-71950702D01*
X204401354Y-71745840D01*
X204280014Y-71558277D01*
X204129670Y-71393051D01*
X204125619Y-71389852D01*
X204125615Y-71389848D01*
X203958414Y-71257800D01*
X203958410Y-71257798D01*
X203954359Y-71254598D01*
X203946304Y-71250151D01*
X203902136Y-71225769D01*
X203758789Y-71146638D01*
X203753920Y-71144914D01*
X203753916Y-71144912D01*
X203553087Y-71073795D01*
X203553083Y-71073794D01*
X203548212Y-71072069D01*
X203543119Y-71071162D01*
X203543116Y-71071161D01*
X203333373Y-71033800D01*
X203333367Y-71033799D01*
X203328284Y-71032894D01*
X203254452Y-71031992D01*
X203110081Y-71030228D01*
X203110079Y-71030228D01*
X203104911Y-71030165D01*
X202884091Y-71063955D01*
X202671756Y-71133357D01*
X202473607Y-71236507D01*
X202469474Y-71239610D01*
X202469471Y-71239612D01*
X202448132Y-71255634D01*
X202294965Y-71370635D01*
X202140629Y-71532138D01*
X202137715Y-71536410D01*
X202137714Y-71536411D01*
X202128300Y-71550211D01*
X202014743Y-71716680D01*
X201920688Y-71919305D01*
X201860989Y-72134570D01*
X201837251Y-72356695D01*
X201837548Y-72361848D01*
X201837548Y-72361851D01*
X201843011Y-72456590D01*
X201850110Y-72579715D01*
X201851247Y-72584761D01*
X201851248Y-72584767D01*
X201859955Y-72623402D01*
X201899222Y-72797639D01*
X201983266Y-73004616D01*
X202099987Y-73195088D01*
X202246250Y-73363938D01*
X202250230Y-73367242D01*
X202254981Y-73371187D01*
X202294616Y-73430090D01*
X202296113Y-73501071D01*
X202258997Y-73561593D01*
X202218724Y-73586112D01*
X202103295Y-73629385D01*
X201986739Y-73716739D01*
X201899385Y-73833295D01*
X201848255Y-73969684D01*
X201841500Y-74031866D01*
X201841500Y-74170500D01*
X201821498Y-74238621D01*
X201767842Y-74285114D01*
X201715500Y-74296500D01*
X195894595Y-74296500D01*
X195826474Y-74276498D01*
X195805500Y-74259595D01*
X189075790Y-67529885D01*
X189041764Y-67467573D01*
X189046829Y-67396758D01*
X189089320Y-67339964D01*
X189167135Y-67281645D01*
X189186861Y-67266861D01*
X189274215Y-67150305D01*
X189279314Y-67136705D01*
X189312213Y-67048946D01*
X189354854Y-66992181D01*
X189421416Y-66967481D01*
X189490765Y-66982688D01*
X189525431Y-67010676D01*
X189536702Y-67023687D01*
X189710299Y-67167810D01*
X189714751Y-67170412D01*
X189714756Y-67170415D01*
X189804091Y-67222618D01*
X189905103Y-67281645D01*
X190115884Y-67362134D01*
X190120952Y-67363165D01*
X190120955Y-67363166D01*
X190229404Y-67385230D01*
X190336981Y-67407117D01*
X190342156Y-67407307D01*
X190342158Y-67407307D01*
X190557292Y-67415196D01*
X190557296Y-67415196D01*
X190562456Y-67415385D01*
X190567576Y-67414729D01*
X190567578Y-67414729D01*
X190662485Y-67402571D01*
X190786253Y-67386716D01*
X190791202Y-67385231D01*
X190791208Y-67385230D01*
X190997413Y-67323365D01*
X190997412Y-67323365D01*
X191002363Y-67321880D01*
X191142432Y-67253261D01*
X191200331Y-67224897D01*
X191200336Y-67224894D01*
X191204982Y-67222618D01*
X191209192Y-67219615D01*
X191209197Y-67219612D01*
X191384455Y-67094601D01*
X191384459Y-67094597D01*
X191388667Y-67091596D01*
X191548487Y-66932333D01*
X191669370Y-66764107D01*
X191725364Y-66720459D01*
X191796068Y-66714013D01*
X191859032Y-66746816D01*
X191879125Y-66771799D01*
X191926275Y-66848743D01*
X191926283Y-66848753D01*
X191928975Y-66853147D01*
X192076702Y-67023687D01*
X192250299Y-67167810D01*
X192254751Y-67170412D01*
X192254756Y-67170415D01*
X192344091Y-67222618D01*
X192445103Y-67281645D01*
X192655884Y-67362134D01*
X192660952Y-67363165D01*
X192660955Y-67363166D01*
X192769404Y-67385230D01*
X192876981Y-67407117D01*
X192882156Y-67407307D01*
X192882158Y-67407307D01*
X193097292Y-67415196D01*
X193097296Y-67415196D01*
X193102456Y-67415385D01*
X193107576Y-67414729D01*
X193107578Y-67414729D01*
X193202485Y-67402571D01*
X193326253Y-67386716D01*
X193331202Y-67385231D01*
X193331208Y-67385230D01*
X193537413Y-67323365D01*
X193537412Y-67323365D01*
X193542363Y-67321880D01*
X193682432Y-67253261D01*
X193740331Y-67224897D01*
X193740336Y-67224894D01*
X193744982Y-67222618D01*
X193749192Y-67219615D01*
X193749197Y-67219612D01*
X193924455Y-67094601D01*
X193924459Y-67094597D01*
X193928667Y-67091596D01*
X194088487Y-66932333D01*
X194209370Y-66764107D01*
X194265364Y-66720459D01*
X194336068Y-66714013D01*
X194399032Y-66746816D01*
X194419125Y-66771799D01*
X194466275Y-66848743D01*
X194466283Y-66848753D01*
X194468975Y-66853147D01*
X194616702Y-67023687D01*
X194790299Y-67167810D01*
X194794751Y-67170412D01*
X194794756Y-67170415D01*
X194884091Y-67222618D01*
X194985103Y-67281645D01*
X195195884Y-67362134D01*
X195200952Y-67363165D01*
X195200955Y-67363166D01*
X195309404Y-67385230D01*
X195416981Y-67407117D01*
X195422156Y-67407307D01*
X195422158Y-67407307D01*
X195637292Y-67415196D01*
X195637296Y-67415196D01*
X195642456Y-67415385D01*
X195647576Y-67414729D01*
X195647578Y-67414729D01*
X195742485Y-67402571D01*
X195866253Y-67386716D01*
X195871202Y-67385231D01*
X195871208Y-67385230D01*
X196077413Y-67323365D01*
X196077412Y-67323365D01*
X196082363Y-67321880D01*
X196222432Y-67253261D01*
X196280331Y-67224897D01*
X196280336Y-67224894D01*
X196284982Y-67222618D01*
X196289192Y-67219615D01*
X196289197Y-67219612D01*
X196464455Y-67094601D01*
X196464459Y-67094597D01*
X196468667Y-67091596D01*
X196628487Y-66932333D01*
X196760150Y-66749105D01*
X196860118Y-66546835D01*
X196925708Y-66330952D01*
X196928769Y-66307699D01*
X196954721Y-66110578D01*
X196954722Y-66110572D01*
X196955158Y-66107256D01*
X196956802Y-66040000D01*
X196938315Y-65815132D01*
X196883349Y-65596304D01*
X196793380Y-65389391D01*
X196745282Y-65315043D01*
X196673634Y-65204291D01*
X196673632Y-65204288D01*
X196670826Y-65199951D01*
X196518977Y-65033071D01*
X196514926Y-65029872D01*
X196514922Y-65029868D01*
X196345966Y-64896434D01*
X196345962Y-64896432D01*
X196341911Y-64893232D01*
X196318535Y-64880328D01*
X196268564Y-64829896D01*
X196253792Y-64760453D01*
X196278908Y-64694047D01*
X196306259Y-64667441D01*
X196464455Y-64554601D01*
X196464459Y-64554597D01*
X196468667Y-64551596D01*
X196628487Y-64392333D01*
X196760150Y-64209105D01*
X196860118Y-64006835D01*
X196925708Y-63790952D01*
X196926383Y-63785826D01*
X196954721Y-63570578D01*
X196954722Y-63570572D01*
X196955158Y-63567256D01*
X196955739Y-63543498D01*
X196956720Y-63503364D01*
X196956720Y-63503360D01*
X196956802Y-63500000D01*
X196938315Y-63275132D01*
X196883349Y-63056304D01*
X196793380Y-62849391D01*
X196743913Y-62772926D01*
X196673634Y-62664291D01*
X196673632Y-62664288D01*
X196670826Y-62659951D01*
X196518977Y-62493071D01*
X196514926Y-62489872D01*
X196514922Y-62489868D01*
X196345966Y-62356434D01*
X196345962Y-62356432D01*
X196341911Y-62353232D01*
X196336122Y-62350036D01*
X196281206Y-62319721D01*
X196144383Y-62244191D01*
X195931698Y-62168876D01*
X195902795Y-62163727D01*
X195714657Y-62130214D01*
X195714653Y-62130214D01*
X195709569Y-62129308D01*
X195637574Y-62128429D01*
X195489129Y-62126615D01*
X195489127Y-62126615D01*
X195483959Y-62126552D01*
X195260929Y-62160680D01*
X195046468Y-62230777D01*
X194846335Y-62334960D01*
X194842202Y-62338063D01*
X194842199Y-62338065D01*
X194689643Y-62452607D01*
X194665905Y-62470430D01*
X194510024Y-62633550D01*
X194507109Y-62637824D01*
X194507106Y-62637827D01*
X194413503Y-62775043D01*
X194358592Y-62820046D01*
X194288067Y-62828217D01*
X194224320Y-62796963D01*
X194203623Y-62772479D01*
X194133634Y-62664291D01*
X194133632Y-62664288D01*
X194130826Y-62659951D01*
X193978977Y-62493071D01*
X193974926Y-62489872D01*
X193974922Y-62489868D01*
X193805966Y-62356434D01*
X193805962Y-62356432D01*
X193801911Y-62353232D01*
X193796122Y-62350036D01*
X193741206Y-62319721D01*
X193604383Y-62244191D01*
X193391698Y-62168876D01*
X193362795Y-62163727D01*
X193174657Y-62130214D01*
X193174653Y-62130214D01*
X193169569Y-62129308D01*
X193097574Y-62128429D01*
X192949129Y-62126615D01*
X192949127Y-62126615D01*
X192943959Y-62126552D01*
X192720929Y-62160680D01*
X192506468Y-62230777D01*
X192306335Y-62334960D01*
X192302202Y-62338063D01*
X192302199Y-62338065D01*
X192149643Y-62452607D01*
X192125905Y-62470430D01*
X191970024Y-62633550D01*
X191967109Y-62637824D01*
X191967106Y-62637827D01*
X191873503Y-62775043D01*
X191818592Y-62820046D01*
X191748067Y-62828217D01*
X191684320Y-62796963D01*
X191663623Y-62772479D01*
X191593634Y-62664291D01*
X191593632Y-62664288D01*
X191590826Y-62659951D01*
X191438977Y-62493071D01*
X191434926Y-62489872D01*
X191434922Y-62489868D01*
X191265966Y-62356434D01*
X191265962Y-62356432D01*
X191261911Y-62353232D01*
X191256122Y-62350036D01*
X191201206Y-62319721D01*
X191064383Y-62244191D01*
X190851698Y-62168876D01*
X190822795Y-62163727D01*
X190634657Y-62130214D01*
X190634653Y-62130214D01*
X190629569Y-62129308D01*
X190557574Y-62128429D01*
X190409129Y-62126615D01*
X190409127Y-62126615D01*
X190403959Y-62126552D01*
X190180929Y-62160680D01*
X189966468Y-62230777D01*
X189766335Y-62334960D01*
X189762202Y-62338063D01*
X189762199Y-62338065D01*
X189609643Y-62452607D01*
X189585905Y-62470430D01*
X189430024Y-62633550D01*
X189427109Y-62637824D01*
X189427106Y-62637827D01*
X189333198Y-62775490D01*
X189278287Y-62820493D01*
X189207762Y-62828664D01*
X189144015Y-62797410D01*
X189123318Y-62772926D01*
X189053239Y-62664601D01*
X189046947Y-62656430D01*
X188902113Y-62497260D01*
X188894580Y-62490234D01*
X188725691Y-62356855D01*
X188717104Y-62351150D01*
X188528711Y-62247151D01*
X188519299Y-62242921D01*
X188316445Y-62171086D01*
X188306474Y-62168452D01*
X188231837Y-62155157D01*
X188218540Y-62156617D01*
X188214000Y-62171174D01*
X188214000Y-63628000D01*
X188193998Y-63696121D01*
X188140342Y-63742614D01*
X188088000Y-63754000D01*
X186629283Y-63754000D01*
X186615752Y-63757973D01*
X186614315Y-63767966D01*
X186645542Y-63906528D01*
X186648621Y-63916356D01*
X186729589Y-64115756D01*
X186734232Y-64124947D01*
X186846682Y-64308448D01*
X186852765Y-64316759D01*
X186993661Y-64479413D01*
X186994295Y-64480034D01*
X186994471Y-64480348D01*
X186997053Y-64483329D01*
X186996438Y-64483862D01*
X187028973Y-64541985D01*
X187024653Y-64612850D01*
X186982706Y-64670130D01*
X186950371Y-64688043D01*
X186932435Y-64694767D01*
X186849695Y-64725785D01*
X186733139Y-64813139D01*
X186645785Y-64929695D01*
X186594655Y-65066084D01*
X186587900Y-65128266D01*
X186587900Y-66951734D01*
X182868662Y-66951734D01*
X182845707Y-66866067D01*
X182845706Y-66866065D01*
X182844284Y-66860757D01*
X182841961Y-66855775D01*
X182749849Y-66658238D01*
X182749846Y-66658233D01*
X182747523Y-66653251D01*
X182616198Y-66465700D01*
X182454300Y-66303802D01*
X182449792Y-66300645D01*
X182449789Y-66300643D01*
X182371611Y-66245902D01*
X182266749Y-66172477D01*
X182261767Y-66170154D01*
X182261762Y-66170151D01*
X182064225Y-66078039D01*
X182064224Y-66078039D01*
X182059243Y-66075716D01*
X182053935Y-66074294D01*
X182053933Y-66074293D01*
X181843402Y-66017881D01*
X181843400Y-66017881D01*
X181838087Y-66016457D01*
X181610000Y-65996502D01*
X181381913Y-66016457D01*
X181376600Y-66017881D01*
X181376598Y-66017881D01*
X181166067Y-66074293D01*
X181166065Y-66074294D01*
X181160757Y-66075716D01*
X181155776Y-66078039D01*
X181155775Y-66078039D01*
X180958238Y-66170151D01*
X180958233Y-66170154D01*
X180953251Y-66172477D01*
X180848389Y-66245902D01*
X180770211Y-66300643D01*
X180770208Y-66300645D01*
X180765700Y-66303802D01*
X180603802Y-66465700D01*
X180472477Y-66653251D01*
X180470154Y-66658233D01*
X180470151Y-66658238D01*
X180378039Y-66855775D01*
X180375716Y-66860757D01*
X180374294Y-66866065D01*
X180374293Y-66866067D01*
X180317881Y-67076598D01*
X180316457Y-67081913D01*
X180296502Y-67310000D01*
X172763498Y-67310000D01*
X172743543Y-67081913D01*
X172742119Y-67076598D01*
X172685707Y-66866067D01*
X172685706Y-66866065D01*
X172684284Y-66860757D01*
X172681961Y-66855775D01*
X172589849Y-66658238D01*
X172589846Y-66658233D01*
X172587523Y-66653251D01*
X172456198Y-66465700D01*
X172294300Y-66303802D01*
X172289792Y-66300645D01*
X172289789Y-66300643D01*
X172211611Y-66245902D01*
X172106749Y-66172477D01*
X172101767Y-66170154D01*
X172101762Y-66170151D01*
X171904225Y-66078039D01*
X171904224Y-66078039D01*
X171899243Y-66075716D01*
X171893935Y-66074294D01*
X171893933Y-66074293D01*
X171683402Y-66017881D01*
X171683400Y-66017881D01*
X171678087Y-66016457D01*
X171450000Y-65996502D01*
X171221913Y-66016457D01*
X171216600Y-66017881D01*
X171216598Y-66017881D01*
X171006067Y-66074293D01*
X171006065Y-66074294D01*
X171000757Y-66075716D01*
X170995776Y-66078039D01*
X170995775Y-66078039D01*
X170798238Y-66170151D01*
X170798233Y-66170154D01*
X170793251Y-66172477D01*
X170688389Y-66245902D01*
X170610211Y-66300643D01*
X170610208Y-66300645D01*
X170605700Y-66303802D01*
X170443802Y-66465700D01*
X170312477Y-66653251D01*
X170310154Y-66658233D01*
X170310151Y-66658238D01*
X170218039Y-66855775D01*
X170215716Y-66860757D01*
X170214294Y-66866065D01*
X170214293Y-66866067D01*
X170157881Y-67076598D01*
X170156457Y-67081913D01*
X170136502Y-67310000D01*
X148457554Y-67310000D01*
X148533261Y-67253261D01*
X148620615Y-67136705D01*
X148671745Y-67000316D01*
X148678500Y-66938134D01*
X148678500Y-65141866D01*
X148671745Y-65079684D01*
X148620615Y-64943295D01*
X148533261Y-64826739D01*
X148416705Y-64739385D01*
X148372019Y-64722633D01*
X148297687Y-64694767D01*
X148240923Y-64652125D01*
X148216223Y-64585564D01*
X148231430Y-64516215D01*
X148252977Y-64487535D01*
X148354052Y-64386812D01*
X148360730Y-64378965D01*
X148485003Y-64206020D01*
X148490313Y-64197183D01*
X148584670Y-64006267D01*
X148588469Y-63996672D01*
X148650377Y-63792910D01*
X148652555Y-63782837D01*
X148653986Y-63771962D01*
X148651775Y-63757778D01*
X148638617Y-63754000D01*
X146003225Y-63754000D01*
X145989694Y-63757973D01*
X145988257Y-63767966D01*
X146018565Y-63902446D01*
X146021645Y-63912275D01*
X146101770Y-64109603D01*
X146106413Y-64118794D01*
X146217694Y-64300388D01*
X146223777Y-64308699D01*
X146363213Y-64469667D01*
X146370577Y-64476879D01*
X146375522Y-64480985D01*
X146415156Y-64539889D01*
X146416653Y-64610870D01*
X146379537Y-64671392D01*
X146339264Y-64695910D01*
X146231705Y-64736232D01*
X146231704Y-64736233D01*
X146223295Y-64739385D01*
X146106739Y-64826739D01*
X146019385Y-64943295D01*
X145968255Y-65079684D01*
X145961500Y-65141866D01*
X145961500Y-66938134D01*
X144018000Y-66938134D01*
X144018000Y-63234183D01*
X145984389Y-63234183D01*
X145985912Y-63242607D01*
X145998292Y-63246000D01*
X147047885Y-63246000D01*
X147063124Y-63241525D01*
X147064329Y-63240135D01*
X147066000Y-63232452D01*
X147066000Y-63227885D01*
X147574000Y-63227885D01*
X147578475Y-63243124D01*
X147579865Y-63244329D01*
X147587548Y-63246000D01*
X148638344Y-63246000D01*
X148651875Y-63242027D01*
X148653180Y-63232947D01*
X148611214Y-63065875D01*
X148607894Y-63056124D01*
X148522972Y-62860814D01*
X148518105Y-62851739D01*
X148402426Y-62672926D01*
X148396136Y-62664757D01*
X148252806Y-62507240D01*
X148245273Y-62500215D01*
X148078139Y-62368222D01*
X148069552Y-62362517D01*
X147883117Y-62259599D01*
X147873705Y-62255369D01*
X147802066Y-62230000D01*
X159976502Y-62230000D01*
X159996457Y-62458087D01*
X159997881Y-62463400D01*
X159997881Y-62463402D01*
X160051793Y-62664601D01*
X160055716Y-62679243D01*
X160058039Y-62684224D01*
X160058039Y-62684225D01*
X160150151Y-62881762D01*
X160150154Y-62881767D01*
X160152477Y-62886749D01*
X160155634Y-62891257D01*
X160277903Y-63065875D01*
X160283802Y-63074300D01*
X160445700Y-63236198D01*
X160450208Y-63239355D01*
X160450211Y-63239357D01*
X160501303Y-63275132D01*
X160633251Y-63367523D01*
X160638233Y-63369846D01*
X160638238Y-63369849D01*
X160835775Y-63461961D01*
X160840757Y-63464284D01*
X160846065Y-63465706D01*
X160846067Y-63465707D01*
X161056598Y-63522119D01*
X161056600Y-63522119D01*
X161061913Y-63523543D01*
X161290000Y-63543498D01*
X161518087Y-63523543D01*
X161523400Y-63522119D01*
X161523402Y-63522119D01*
X161733933Y-63465707D01*
X161733935Y-63465706D01*
X161739243Y-63464284D01*
X161744225Y-63461961D01*
X161941762Y-63369849D01*
X161941767Y-63369846D01*
X161946749Y-63367523D01*
X162078697Y-63275132D01*
X162129789Y-63239357D01*
X162129792Y-63239355D01*
X162134300Y-63236198D01*
X162137259Y-63233239D01*
X186610536Y-63233239D01*
X186612233Y-63242609D01*
X186624610Y-63246000D01*
X187687885Y-63246000D01*
X187703124Y-63241525D01*
X187704329Y-63240135D01*
X187706000Y-63232452D01*
X187706000Y-62169343D01*
X187702082Y-62155999D01*
X187687806Y-62154012D01*
X187646161Y-62160385D01*
X187636125Y-62162776D01*
X187431576Y-62229633D01*
X187422079Y-62233625D01*
X187231189Y-62332995D01*
X187222464Y-62338490D01*
X187050373Y-62467700D01*
X187042666Y-62474543D01*
X186893984Y-62630129D01*
X186887498Y-62638139D01*
X186766232Y-62815908D01*
X186761134Y-62824882D01*
X186670530Y-63020071D01*
X186666967Y-63029758D01*
X186610536Y-63233239D01*
X162137259Y-63233239D01*
X162296198Y-63074300D01*
X162302098Y-63065875D01*
X162424366Y-62891257D01*
X162427523Y-62886749D01*
X162429846Y-62881767D01*
X162429849Y-62881762D01*
X162521961Y-62684225D01*
X162521961Y-62684224D01*
X162524284Y-62679243D01*
X162528208Y-62664601D01*
X162582119Y-62463402D01*
X162582119Y-62463400D01*
X162583543Y-62458087D01*
X162603498Y-62230000D01*
X162583543Y-62001913D01*
X162524284Y-61780757D01*
X162521961Y-61775775D01*
X162429849Y-61578238D01*
X162429846Y-61578233D01*
X162427523Y-61573251D01*
X162296198Y-61385700D01*
X162134300Y-61223802D01*
X162129792Y-61220645D01*
X162129789Y-61220643D01*
X162051611Y-61165902D01*
X161946749Y-61092477D01*
X161941767Y-61090154D01*
X161941762Y-61090151D01*
X161744225Y-60998039D01*
X161744224Y-60998039D01*
X161739243Y-60995716D01*
X161733935Y-60994294D01*
X161733933Y-60994293D01*
X161523402Y-60937881D01*
X161523400Y-60937881D01*
X161518087Y-60936457D01*
X161290000Y-60916502D01*
X161061913Y-60936457D01*
X161056600Y-60937881D01*
X161056598Y-60937881D01*
X160846067Y-60994293D01*
X160846065Y-60994294D01*
X160840757Y-60995716D01*
X160835776Y-60998039D01*
X160835775Y-60998039D01*
X160638238Y-61090151D01*
X160638233Y-61090154D01*
X160633251Y-61092477D01*
X160528389Y-61165902D01*
X160450211Y-61220643D01*
X160450208Y-61220645D01*
X160445700Y-61223802D01*
X160283802Y-61385700D01*
X160152477Y-61573251D01*
X160150154Y-61578233D01*
X160150151Y-61578238D01*
X160058039Y-61775775D01*
X160055716Y-61780757D01*
X159996457Y-62001913D01*
X159976502Y-62230000D01*
X147802066Y-62230000D01*
X147672959Y-62184280D01*
X147662988Y-62181646D01*
X147591837Y-62168972D01*
X147578540Y-62170432D01*
X147574000Y-62184989D01*
X147574000Y-63227885D01*
X147066000Y-63227885D01*
X147066000Y-62183102D01*
X147062082Y-62169758D01*
X147047806Y-62167771D01*
X147009324Y-62173660D01*
X146999288Y-62176051D01*
X146796868Y-62242212D01*
X146787359Y-62246209D01*
X146598463Y-62344542D01*
X146589738Y-62350036D01*
X146419433Y-62477905D01*
X146411726Y-62484748D01*
X146264590Y-62638717D01*
X146258104Y-62646727D01*
X146138098Y-62822649D01*
X146133000Y-62831623D01*
X146043338Y-63024783D01*
X146039775Y-63034470D01*
X145984389Y-63234183D01*
X144018000Y-63234183D01*
X144018000Y-57840000D01*
X153276835Y-57840000D01*
X153295465Y-58076711D01*
X153350895Y-58307594D01*
X153441760Y-58526963D01*
X153444346Y-58531183D01*
X153563241Y-58725202D01*
X153563245Y-58725208D01*
X153565824Y-58729416D01*
X153720031Y-58909969D01*
X153900584Y-59064176D01*
X153904792Y-59066755D01*
X153904798Y-59066759D01*
X154098817Y-59185654D01*
X154103037Y-59188240D01*
X154107607Y-59190133D01*
X154107611Y-59190135D01*
X154317833Y-59277211D01*
X154322406Y-59279105D01*
X154402609Y-59298360D01*
X154548476Y-59333380D01*
X154548482Y-59333381D01*
X154553289Y-59334535D01*
X154790000Y-59353165D01*
X155026711Y-59334535D01*
X155031518Y-59333381D01*
X155031524Y-59333380D01*
X155177391Y-59298360D01*
X155257594Y-59279105D01*
X155262167Y-59277211D01*
X155472389Y-59190135D01*
X155472393Y-59190133D01*
X155476963Y-59188240D01*
X155481183Y-59185654D01*
X155675202Y-59066759D01*
X155675208Y-59066755D01*
X155679416Y-59064176D01*
X155859969Y-58909969D01*
X156014176Y-58729416D01*
X156016755Y-58725208D01*
X156016759Y-58725202D01*
X156135654Y-58531183D01*
X156138240Y-58526963D01*
X156229105Y-58307594D01*
X156284535Y-58076711D01*
X156303165Y-57840000D01*
X159776835Y-57840000D01*
X159795465Y-58076711D01*
X159850895Y-58307594D01*
X159941760Y-58526963D01*
X159944346Y-58531183D01*
X160063241Y-58725202D01*
X160063245Y-58725208D01*
X160065824Y-58729416D01*
X160220031Y-58909969D01*
X160400584Y-59064176D01*
X160404792Y-59066755D01*
X160404798Y-59066759D01*
X160598817Y-59185654D01*
X160603037Y-59188240D01*
X160607607Y-59190133D01*
X160607611Y-59190135D01*
X160817833Y-59277211D01*
X160822406Y-59279105D01*
X160902609Y-59298360D01*
X161048476Y-59333380D01*
X161048482Y-59333381D01*
X161053289Y-59334535D01*
X161290000Y-59353165D01*
X161526711Y-59334535D01*
X161531518Y-59333381D01*
X161531524Y-59333380D01*
X161677391Y-59298360D01*
X161757594Y-59279105D01*
X161762167Y-59277211D01*
X161972389Y-59190135D01*
X161972393Y-59190133D01*
X161976963Y-59188240D01*
X161981183Y-59185654D01*
X162175202Y-59066759D01*
X162175208Y-59066755D01*
X162179416Y-59064176D01*
X162359969Y-58909969D01*
X162514176Y-58729416D01*
X162516755Y-58725208D01*
X162516759Y-58725202D01*
X162635654Y-58531183D01*
X162638240Y-58526963D01*
X162729105Y-58307594D01*
X162784535Y-58076711D01*
X162803165Y-57840000D01*
X168516835Y-57840000D01*
X168535465Y-58076711D01*
X168590895Y-58307594D01*
X168681760Y-58526963D01*
X168684346Y-58531183D01*
X168803241Y-58725202D01*
X168803245Y-58725208D01*
X168805824Y-58729416D01*
X168960031Y-58909969D01*
X169140584Y-59064176D01*
X169144792Y-59066755D01*
X169144798Y-59066759D01*
X169338817Y-59185654D01*
X169343037Y-59188240D01*
X169347607Y-59190133D01*
X169347611Y-59190135D01*
X169557833Y-59277211D01*
X169562406Y-59279105D01*
X169642609Y-59298360D01*
X169788476Y-59333380D01*
X169788482Y-59333381D01*
X169793289Y-59334535D01*
X170030000Y-59353165D01*
X170266711Y-59334535D01*
X170271518Y-59333381D01*
X170271524Y-59333380D01*
X170417391Y-59298360D01*
X170497594Y-59279105D01*
X170502167Y-59277211D01*
X170712389Y-59190135D01*
X170712393Y-59190133D01*
X170716963Y-59188240D01*
X170721183Y-59185654D01*
X170915202Y-59066759D01*
X170915208Y-59066755D01*
X170919416Y-59064176D01*
X171099969Y-58909969D01*
X171254176Y-58729416D01*
X171256755Y-58725208D01*
X171256759Y-58725202D01*
X171375654Y-58531183D01*
X171378240Y-58526963D01*
X171469105Y-58307594D01*
X171524535Y-58076711D01*
X171543165Y-57840000D01*
X175016835Y-57840000D01*
X175035465Y-58076711D01*
X175090895Y-58307594D01*
X175181760Y-58526963D01*
X175184346Y-58531183D01*
X175303241Y-58725202D01*
X175303245Y-58725208D01*
X175305824Y-58729416D01*
X175460031Y-58909969D01*
X175640584Y-59064176D01*
X175644792Y-59066755D01*
X175644798Y-59066759D01*
X175838817Y-59185654D01*
X175843037Y-59188240D01*
X175847607Y-59190133D01*
X175847611Y-59190135D01*
X176057833Y-59277211D01*
X176062406Y-59279105D01*
X176142609Y-59298360D01*
X176288476Y-59333380D01*
X176288482Y-59333381D01*
X176293289Y-59334535D01*
X176530000Y-59353165D01*
X176766711Y-59334535D01*
X176771518Y-59333381D01*
X176771524Y-59333380D01*
X176917391Y-59298360D01*
X176997594Y-59279105D01*
X177002167Y-59277211D01*
X177212389Y-59190135D01*
X177212393Y-59190133D01*
X177216963Y-59188240D01*
X177221183Y-59185654D01*
X177415202Y-59066759D01*
X177415208Y-59066755D01*
X177419416Y-59064176D01*
X177599969Y-58909969D01*
X177754176Y-58729416D01*
X177756755Y-58725208D01*
X177756759Y-58725202D01*
X177875654Y-58531183D01*
X177878240Y-58526963D01*
X177969105Y-58307594D01*
X178024535Y-58076711D01*
X178043165Y-57840000D01*
X178024535Y-57603289D01*
X177969105Y-57372406D01*
X177878240Y-57153037D01*
X177875654Y-57148817D01*
X177756759Y-56954798D01*
X177756755Y-56954792D01*
X177754176Y-56950584D01*
X177599969Y-56770031D01*
X177419416Y-56615824D01*
X177415208Y-56613245D01*
X177415202Y-56613241D01*
X177221183Y-56494346D01*
X177216963Y-56491760D01*
X177212393Y-56489867D01*
X177212389Y-56489865D01*
X177002167Y-56402789D01*
X177002165Y-56402788D01*
X176997594Y-56400895D01*
X176917391Y-56381640D01*
X176771524Y-56346620D01*
X176771518Y-56346619D01*
X176766711Y-56345465D01*
X176530000Y-56326835D01*
X176293289Y-56345465D01*
X176288482Y-56346619D01*
X176288476Y-56346620D01*
X176142609Y-56381640D01*
X176062406Y-56400895D01*
X176057835Y-56402788D01*
X176057833Y-56402789D01*
X175847611Y-56489865D01*
X175847607Y-56489867D01*
X175843037Y-56491760D01*
X175838817Y-56494346D01*
X175644798Y-56613241D01*
X175644792Y-56613245D01*
X175640584Y-56615824D01*
X175460031Y-56770031D01*
X175305824Y-56950584D01*
X175303245Y-56954792D01*
X175303241Y-56954798D01*
X175184346Y-57148817D01*
X175181760Y-57153037D01*
X175090895Y-57372406D01*
X175035465Y-57603289D01*
X175016835Y-57840000D01*
X171543165Y-57840000D01*
X171524535Y-57603289D01*
X171469105Y-57372406D01*
X171378240Y-57153037D01*
X171375654Y-57148817D01*
X171256759Y-56954798D01*
X171256755Y-56954792D01*
X171254176Y-56950584D01*
X171099969Y-56770031D01*
X170919416Y-56615824D01*
X170915208Y-56613245D01*
X170915202Y-56613241D01*
X170721183Y-56494346D01*
X170716963Y-56491760D01*
X170712393Y-56489867D01*
X170712389Y-56489865D01*
X170502167Y-56402789D01*
X170502165Y-56402788D01*
X170497594Y-56400895D01*
X170417391Y-56381640D01*
X170271524Y-56346620D01*
X170271518Y-56346619D01*
X170266711Y-56345465D01*
X170030000Y-56326835D01*
X169793289Y-56345465D01*
X169788482Y-56346619D01*
X169788476Y-56346620D01*
X169642609Y-56381640D01*
X169562406Y-56400895D01*
X169557835Y-56402788D01*
X169557833Y-56402789D01*
X169347611Y-56489865D01*
X169347607Y-56489867D01*
X169343037Y-56491760D01*
X169338817Y-56494346D01*
X169144798Y-56613241D01*
X169144792Y-56613245D01*
X169140584Y-56615824D01*
X168960031Y-56770031D01*
X168805824Y-56950584D01*
X168803245Y-56954792D01*
X168803241Y-56954798D01*
X168684346Y-57148817D01*
X168681760Y-57153037D01*
X168590895Y-57372406D01*
X168535465Y-57603289D01*
X168516835Y-57840000D01*
X162803165Y-57840000D01*
X162784535Y-57603289D01*
X162729105Y-57372406D01*
X162638240Y-57153037D01*
X162635654Y-57148817D01*
X162516759Y-56954798D01*
X162516755Y-56954792D01*
X162514176Y-56950584D01*
X162359969Y-56770031D01*
X162179416Y-56615824D01*
X162175208Y-56613245D01*
X162175202Y-56613241D01*
X161981183Y-56494346D01*
X161976963Y-56491760D01*
X161972393Y-56489867D01*
X161972389Y-56489865D01*
X161762167Y-56402789D01*
X161762165Y-56402788D01*
X161757594Y-56400895D01*
X161677391Y-56381640D01*
X161531524Y-56346620D01*
X161531518Y-56346619D01*
X161526711Y-56345465D01*
X161290000Y-56326835D01*
X161053289Y-56345465D01*
X161048482Y-56346619D01*
X161048476Y-56346620D01*
X160902609Y-56381640D01*
X160822406Y-56400895D01*
X160817835Y-56402788D01*
X160817833Y-56402789D01*
X160607611Y-56489865D01*
X160607607Y-56489867D01*
X160603037Y-56491760D01*
X160598817Y-56494346D01*
X160404798Y-56613241D01*
X160404792Y-56613245D01*
X160400584Y-56615824D01*
X160220031Y-56770031D01*
X160065824Y-56950584D01*
X160063245Y-56954792D01*
X160063241Y-56954798D01*
X159944346Y-57148817D01*
X159941760Y-57153037D01*
X159850895Y-57372406D01*
X159795465Y-57603289D01*
X159776835Y-57840000D01*
X156303165Y-57840000D01*
X156284535Y-57603289D01*
X156229105Y-57372406D01*
X156138240Y-57153037D01*
X156135654Y-57148817D01*
X156016759Y-56954798D01*
X156016755Y-56954792D01*
X156014176Y-56950584D01*
X155859969Y-56770031D01*
X155679416Y-56615824D01*
X155675208Y-56613245D01*
X155675202Y-56613241D01*
X155481183Y-56494346D01*
X155476963Y-56491760D01*
X155472393Y-56489867D01*
X155472389Y-56489865D01*
X155262167Y-56402789D01*
X155262165Y-56402788D01*
X155257594Y-56400895D01*
X155177391Y-56381640D01*
X155031524Y-56346620D01*
X155031518Y-56346619D01*
X155026711Y-56345465D01*
X154790000Y-56326835D01*
X154553289Y-56345465D01*
X154548482Y-56346619D01*
X154548476Y-56346620D01*
X154402609Y-56381640D01*
X154322406Y-56400895D01*
X154317835Y-56402788D01*
X154317833Y-56402789D01*
X154107611Y-56489865D01*
X154107607Y-56489867D01*
X154103037Y-56491760D01*
X154098817Y-56494346D01*
X153904798Y-56613241D01*
X153904792Y-56613245D01*
X153900584Y-56615824D01*
X153720031Y-56770031D01*
X153565824Y-56950584D01*
X153563245Y-56954792D01*
X153563241Y-56954798D01*
X153444346Y-57148817D01*
X153441760Y-57153037D01*
X153350895Y-57372406D01*
X153295465Y-57603289D01*
X153276835Y-57840000D01*
X144018000Y-57840000D01*
X144018000Y-53340000D01*
X153276835Y-53340000D01*
X153295465Y-53576711D01*
X153350895Y-53807594D01*
X153352788Y-53812165D01*
X153352789Y-53812167D01*
X153439772Y-54022163D01*
X153441760Y-54026963D01*
X153444346Y-54031183D01*
X153563241Y-54225202D01*
X153563245Y-54225208D01*
X153565824Y-54229416D01*
X153720031Y-54409969D01*
X153900584Y-54564176D01*
X153904792Y-54566755D01*
X153904798Y-54566759D01*
X154098084Y-54685205D01*
X154103037Y-54688240D01*
X154107607Y-54690133D01*
X154107611Y-54690135D01*
X154317833Y-54777211D01*
X154322406Y-54779105D01*
X154402609Y-54798360D01*
X154548476Y-54833380D01*
X154548482Y-54833381D01*
X154553289Y-54834535D01*
X154790000Y-54853165D01*
X155026711Y-54834535D01*
X155031518Y-54833381D01*
X155031524Y-54833380D01*
X155177391Y-54798360D01*
X155257594Y-54779105D01*
X155262167Y-54777211D01*
X155472389Y-54690135D01*
X155472393Y-54690133D01*
X155476963Y-54688240D01*
X155481916Y-54685205D01*
X155675202Y-54566759D01*
X155675208Y-54566755D01*
X155679416Y-54564176D01*
X155859969Y-54409969D01*
X156014176Y-54229416D01*
X156016755Y-54225208D01*
X156016759Y-54225202D01*
X156135654Y-54031183D01*
X156138240Y-54026963D01*
X156140229Y-54022163D01*
X156227211Y-53812167D01*
X156227212Y-53812165D01*
X156229105Y-53807594D01*
X156284535Y-53576711D01*
X156303165Y-53340000D01*
X159776835Y-53340000D01*
X159795465Y-53576711D01*
X159850895Y-53807594D01*
X159852788Y-53812165D01*
X159852789Y-53812167D01*
X159939772Y-54022163D01*
X159941760Y-54026963D01*
X159944346Y-54031183D01*
X160063241Y-54225202D01*
X160063245Y-54225208D01*
X160065824Y-54229416D01*
X160220031Y-54409969D01*
X160400584Y-54564176D01*
X160404792Y-54566755D01*
X160404798Y-54566759D01*
X160598084Y-54685205D01*
X160603037Y-54688240D01*
X160607607Y-54690133D01*
X160607611Y-54690135D01*
X160817833Y-54777211D01*
X160822406Y-54779105D01*
X160902609Y-54798360D01*
X161048476Y-54833380D01*
X161048482Y-54833381D01*
X161053289Y-54834535D01*
X161290000Y-54853165D01*
X161526711Y-54834535D01*
X161531518Y-54833381D01*
X161531524Y-54833380D01*
X161677391Y-54798360D01*
X161757594Y-54779105D01*
X161762167Y-54777211D01*
X161972389Y-54690135D01*
X161972393Y-54690133D01*
X161976963Y-54688240D01*
X161981916Y-54685205D01*
X162165556Y-54572670D01*
X169162160Y-54572670D01*
X169167887Y-54580320D01*
X169339042Y-54685205D01*
X169347837Y-54689687D01*
X169557988Y-54776734D01*
X169567373Y-54779783D01*
X169788554Y-54832885D01*
X169798301Y-54834428D01*
X170025070Y-54852275D01*
X170034930Y-54852275D01*
X170261699Y-54834428D01*
X170271446Y-54832885D01*
X170492627Y-54779783D01*
X170502012Y-54776734D01*
X170712163Y-54689687D01*
X170720958Y-54685205D01*
X170888445Y-54582568D01*
X170897400Y-54572670D01*
X175662160Y-54572670D01*
X175667887Y-54580320D01*
X175839042Y-54685205D01*
X175847837Y-54689687D01*
X176057988Y-54776734D01*
X176067373Y-54779783D01*
X176288554Y-54832885D01*
X176298301Y-54834428D01*
X176525070Y-54852275D01*
X176534930Y-54852275D01*
X176761699Y-54834428D01*
X176771446Y-54832885D01*
X176992627Y-54779783D01*
X177002012Y-54776734D01*
X177212163Y-54689687D01*
X177220958Y-54685205D01*
X177388445Y-54582568D01*
X177397907Y-54572110D01*
X177394124Y-54563334D01*
X176542812Y-53712022D01*
X176528868Y-53704408D01*
X176527035Y-53704539D01*
X176520420Y-53708790D01*
X175668920Y-54560290D01*
X175662160Y-54572670D01*
X170897400Y-54572670D01*
X170897907Y-54572110D01*
X170894124Y-54563334D01*
X170042812Y-53712022D01*
X170028868Y-53704408D01*
X170027035Y-53704539D01*
X170020420Y-53708790D01*
X169168920Y-54560290D01*
X169162160Y-54572670D01*
X162165556Y-54572670D01*
X162175202Y-54566759D01*
X162175208Y-54566755D01*
X162179416Y-54564176D01*
X162359969Y-54409969D01*
X162514176Y-54229416D01*
X162516755Y-54225208D01*
X162516759Y-54225202D01*
X162635654Y-54031183D01*
X162638240Y-54026963D01*
X162640229Y-54022163D01*
X162727211Y-53812167D01*
X162727212Y-53812165D01*
X162729105Y-53807594D01*
X162784535Y-53576711D01*
X162802777Y-53344930D01*
X168517725Y-53344930D01*
X168535572Y-53571699D01*
X168537115Y-53581446D01*
X168590217Y-53802627D01*
X168593266Y-53812012D01*
X168680313Y-54022163D01*
X168684795Y-54030958D01*
X168787432Y-54198445D01*
X168797890Y-54207907D01*
X168806666Y-54204124D01*
X169657978Y-53352812D01*
X169664356Y-53341132D01*
X170394408Y-53341132D01*
X170394539Y-53342965D01*
X170398790Y-53349580D01*
X171250290Y-54201080D01*
X171262670Y-54207840D01*
X171270320Y-54202113D01*
X171375205Y-54030958D01*
X171379687Y-54022163D01*
X171466734Y-53812012D01*
X171469783Y-53802627D01*
X171522885Y-53581446D01*
X171524428Y-53571699D01*
X171542275Y-53344930D01*
X175017725Y-53344930D01*
X175035572Y-53571699D01*
X175037115Y-53581446D01*
X175090217Y-53802627D01*
X175093266Y-53812012D01*
X175180313Y-54022163D01*
X175184795Y-54030958D01*
X175287432Y-54198445D01*
X175297890Y-54207907D01*
X175306666Y-54204124D01*
X176157978Y-53352812D01*
X176164356Y-53341132D01*
X176894408Y-53341132D01*
X176894539Y-53342965D01*
X176898790Y-53349580D01*
X177750290Y-54201080D01*
X177762670Y-54207840D01*
X177770320Y-54202113D01*
X177875205Y-54030958D01*
X177879687Y-54022163D01*
X177966734Y-53812012D01*
X177969783Y-53802627D01*
X178022885Y-53581446D01*
X178024428Y-53571699D01*
X178042275Y-53344930D01*
X178042275Y-53335070D01*
X178024428Y-53108301D01*
X178022885Y-53098554D01*
X177969783Y-52877373D01*
X177966734Y-52867988D01*
X177879687Y-52657837D01*
X177875205Y-52649042D01*
X177772568Y-52481555D01*
X177762110Y-52472093D01*
X177753334Y-52475876D01*
X176902022Y-53327188D01*
X176894408Y-53341132D01*
X176164356Y-53341132D01*
X176165592Y-53338868D01*
X176165461Y-53337035D01*
X176161210Y-53330420D01*
X175309710Y-52478920D01*
X175297330Y-52472160D01*
X175289680Y-52477887D01*
X175184795Y-52649042D01*
X175180313Y-52657837D01*
X175093266Y-52867988D01*
X175090217Y-52877373D01*
X175037115Y-53098554D01*
X175035572Y-53108301D01*
X175017725Y-53335070D01*
X175017725Y-53344930D01*
X171542275Y-53344930D01*
X171542275Y-53335070D01*
X171524428Y-53108301D01*
X171522885Y-53098554D01*
X171469783Y-52877373D01*
X171466734Y-52867988D01*
X171379687Y-52657837D01*
X171375205Y-52649042D01*
X171272568Y-52481555D01*
X171262110Y-52472093D01*
X171253334Y-52475876D01*
X170402022Y-53327188D01*
X170394408Y-53341132D01*
X169664356Y-53341132D01*
X169665592Y-53338868D01*
X169665461Y-53337035D01*
X169661210Y-53330420D01*
X168809710Y-52478920D01*
X168797330Y-52472160D01*
X168789680Y-52477887D01*
X168684795Y-52649042D01*
X168680313Y-52657837D01*
X168593266Y-52867988D01*
X168590217Y-52877373D01*
X168537115Y-53098554D01*
X168535572Y-53108301D01*
X168517725Y-53335070D01*
X168517725Y-53344930D01*
X162802777Y-53344930D01*
X162803165Y-53340000D01*
X162784535Y-53103289D01*
X162729105Y-52872406D01*
X162727211Y-52867833D01*
X162640135Y-52657611D01*
X162640133Y-52657607D01*
X162638240Y-52653037D01*
X162635654Y-52648817D01*
X162516759Y-52454798D01*
X162516755Y-52454792D01*
X162514176Y-52450584D01*
X162359969Y-52270031D01*
X162179416Y-52115824D01*
X162175208Y-52113245D01*
X162175202Y-52113241D01*
X162166470Y-52107890D01*
X169162093Y-52107890D01*
X169165876Y-52116666D01*
X170017188Y-52967978D01*
X170031132Y-52975592D01*
X170032965Y-52975461D01*
X170039580Y-52971210D01*
X170891080Y-52119710D01*
X170897534Y-52107890D01*
X175662093Y-52107890D01*
X175665876Y-52116666D01*
X176517188Y-52967978D01*
X176531132Y-52975592D01*
X176532965Y-52975461D01*
X176539580Y-52971210D01*
X177391080Y-52119710D01*
X177397840Y-52107330D01*
X177392113Y-52099680D01*
X177220958Y-51994795D01*
X177212163Y-51990313D01*
X177002012Y-51903266D01*
X176992627Y-51900217D01*
X176771446Y-51847115D01*
X176761699Y-51845572D01*
X176534930Y-51827725D01*
X176525070Y-51827725D01*
X176298301Y-51845572D01*
X176288554Y-51847115D01*
X176067373Y-51900217D01*
X176057988Y-51903266D01*
X175847837Y-51990313D01*
X175839042Y-51994795D01*
X175671555Y-52097432D01*
X175662093Y-52107890D01*
X170897534Y-52107890D01*
X170897840Y-52107330D01*
X170892113Y-52099680D01*
X170720958Y-51994795D01*
X170712163Y-51990313D01*
X170502012Y-51903266D01*
X170492627Y-51900217D01*
X170271446Y-51847115D01*
X170261699Y-51845572D01*
X170034930Y-51827725D01*
X170025070Y-51827725D01*
X169798301Y-51845572D01*
X169788554Y-51847115D01*
X169567373Y-51900217D01*
X169557988Y-51903266D01*
X169347837Y-51990313D01*
X169339042Y-51994795D01*
X169171555Y-52097432D01*
X169162093Y-52107890D01*
X162166470Y-52107890D01*
X161981183Y-51994346D01*
X161976963Y-51991760D01*
X161972393Y-51989867D01*
X161972389Y-51989865D01*
X161762167Y-51902789D01*
X161762165Y-51902788D01*
X161757594Y-51900895D01*
X161677391Y-51881640D01*
X161531524Y-51846620D01*
X161531518Y-51846619D01*
X161526711Y-51845465D01*
X161290000Y-51826835D01*
X161053289Y-51845465D01*
X161048482Y-51846619D01*
X161048476Y-51846620D01*
X160902609Y-51881640D01*
X160822406Y-51900895D01*
X160817835Y-51902788D01*
X160817833Y-51902789D01*
X160607611Y-51989865D01*
X160607607Y-51989867D01*
X160603037Y-51991760D01*
X160598817Y-51994346D01*
X160404798Y-52113241D01*
X160404792Y-52113245D01*
X160400584Y-52115824D01*
X160220031Y-52270031D01*
X160065824Y-52450584D01*
X160063245Y-52454792D01*
X160063241Y-52454798D01*
X159944346Y-52648817D01*
X159941760Y-52653037D01*
X159939867Y-52657607D01*
X159939865Y-52657611D01*
X159852789Y-52867833D01*
X159850895Y-52872406D01*
X159795465Y-53103289D01*
X159776835Y-53340000D01*
X156303165Y-53340000D01*
X156284535Y-53103289D01*
X156229105Y-52872406D01*
X156227211Y-52867833D01*
X156140135Y-52657611D01*
X156140133Y-52657607D01*
X156138240Y-52653037D01*
X156135654Y-52648817D01*
X156016759Y-52454798D01*
X156016755Y-52454792D01*
X156014176Y-52450584D01*
X155859969Y-52270031D01*
X155679416Y-52115824D01*
X155675208Y-52113245D01*
X155675202Y-52113241D01*
X155481183Y-51994346D01*
X155476963Y-51991760D01*
X155472393Y-51989867D01*
X155472389Y-51989865D01*
X155262167Y-51902789D01*
X155262165Y-51902788D01*
X155257594Y-51900895D01*
X155177391Y-51881640D01*
X155031524Y-51846620D01*
X155031518Y-51846619D01*
X155026711Y-51845465D01*
X154790000Y-51826835D01*
X154553289Y-51845465D01*
X154548482Y-51846619D01*
X154548476Y-51846620D01*
X154402609Y-51881640D01*
X154322406Y-51900895D01*
X154317835Y-51902788D01*
X154317833Y-51902789D01*
X154107611Y-51989865D01*
X154107607Y-51989867D01*
X154103037Y-51991760D01*
X154098817Y-51994346D01*
X153904798Y-52113241D01*
X153904792Y-52113245D01*
X153900584Y-52115824D01*
X153720031Y-52270031D01*
X153565824Y-52450584D01*
X153563245Y-52454792D01*
X153563241Y-52454798D01*
X153444346Y-52648817D01*
X153441760Y-52653037D01*
X153439867Y-52657607D01*
X153439865Y-52657611D01*
X153352789Y-52867833D01*
X153350895Y-52872406D01*
X153295465Y-53103289D01*
X153276835Y-53340000D01*
X144018000Y-53340000D01*
X144018000Y-48260000D01*
X157436502Y-48260000D01*
X157456457Y-48488087D01*
X157457881Y-48493400D01*
X157457881Y-48493402D01*
X157495025Y-48632022D01*
X157515716Y-48709243D01*
X157518039Y-48714224D01*
X157518039Y-48714225D01*
X157610151Y-48911762D01*
X157610154Y-48911767D01*
X157612477Y-48916749D01*
X157743802Y-49104300D01*
X157905700Y-49266198D01*
X157910208Y-49269355D01*
X157910211Y-49269357D01*
X157988389Y-49324098D01*
X158093251Y-49397523D01*
X158098233Y-49399846D01*
X158098238Y-49399849D01*
X158294765Y-49491490D01*
X158300757Y-49494284D01*
X158306065Y-49495706D01*
X158306067Y-49495707D01*
X158516598Y-49552119D01*
X158516600Y-49552119D01*
X158521913Y-49553543D01*
X158750000Y-49573498D01*
X158978087Y-49553543D01*
X158983400Y-49552119D01*
X158983402Y-49552119D01*
X159193933Y-49495707D01*
X159193935Y-49495706D01*
X159199243Y-49494284D01*
X159205235Y-49491490D01*
X159401762Y-49399849D01*
X159401767Y-49399846D01*
X159406749Y-49397523D01*
X159480243Y-49346062D01*
X168188493Y-49346062D01*
X168197789Y-49358077D01*
X168248994Y-49393931D01*
X168258489Y-49399414D01*
X168455947Y-49491490D01*
X168466239Y-49495236D01*
X168676688Y-49551625D01*
X168687481Y-49553528D01*
X168904525Y-49572517D01*
X168915475Y-49572517D01*
X169132519Y-49553528D01*
X169143312Y-49551625D01*
X169353761Y-49495236D01*
X169364053Y-49491490D01*
X169561511Y-49399414D01*
X169571006Y-49393931D01*
X169623048Y-49357491D01*
X169631424Y-49347012D01*
X169624356Y-49333566D01*
X168922812Y-48632022D01*
X168908868Y-48624408D01*
X168907035Y-48624539D01*
X168900420Y-48628790D01*
X168194923Y-49334287D01*
X168188493Y-49346062D01*
X159480243Y-49346062D01*
X159511611Y-49324098D01*
X159589789Y-49269357D01*
X159589792Y-49269355D01*
X159594300Y-49266198D01*
X159756198Y-49104300D01*
X159887523Y-48916749D01*
X159889846Y-48911767D01*
X159889849Y-48911762D01*
X159981961Y-48714225D01*
X159981961Y-48714224D01*
X159984284Y-48709243D01*
X160004976Y-48632022D01*
X160042119Y-48493402D01*
X160042119Y-48493400D01*
X160043543Y-48488087D01*
X160063019Y-48265475D01*
X167597483Y-48265475D01*
X167616472Y-48482519D01*
X167618375Y-48493312D01*
X167674764Y-48703761D01*
X167678510Y-48714053D01*
X167770586Y-48911511D01*
X167776069Y-48921006D01*
X167812509Y-48973048D01*
X167822988Y-48981424D01*
X167836434Y-48974356D01*
X168537978Y-48272812D01*
X168544356Y-48261132D01*
X169274408Y-48261132D01*
X169274539Y-48262965D01*
X169278790Y-48269580D01*
X169984287Y-48975077D01*
X169996062Y-48981507D01*
X170008077Y-48972211D01*
X170043931Y-48921006D01*
X170049414Y-48911511D01*
X170141490Y-48714053D01*
X170145236Y-48703761D01*
X170201625Y-48493312D01*
X170203528Y-48482519D01*
X170222517Y-48265475D01*
X170222517Y-48254525D01*
X170203528Y-48037481D01*
X170201625Y-48026688D01*
X170145236Y-47816239D01*
X170141490Y-47805947D01*
X170049414Y-47608489D01*
X170043931Y-47598994D01*
X170007491Y-47546952D01*
X169997012Y-47538576D01*
X169983566Y-47545644D01*
X169282022Y-48247188D01*
X169274408Y-48261132D01*
X168544356Y-48261132D01*
X168545592Y-48258868D01*
X168545461Y-48257035D01*
X168541210Y-48250420D01*
X167835713Y-47544923D01*
X167823938Y-47538493D01*
X167811923Y-47547789D01*
X167776069Y-47598994D01*
X167770586Y-47608489D01*
X167678510Y-47805947D01*
X167674764Y-47816239D01*
X167618375Y-48026688D01*
X167616472Y-48037481D01*
X167597483Y-48254525D01*
X167597483Y-48265475D01*
X160063019Y-48265475D01*
X160063498Y-48260000D01*
X160043543Y-48031913D01*
X160006981Y-47895461D01*
X159985707Y-47816067D01*
X159985706Y-47816065D01*
X159984284Y-47810757D01*
X159889966Y-47608489D01*
X159889849Y-47608238D01*
X159889846Y-47608233D01*
X159887523Y-47603251D01*
X159756198Y-47415700D01*
X159594300Y-47253802D01*
X159589792Y-47250645D01*
X159589789Y-47250643D01*
X159478886Y-47172988D01*
X168188576Y-47172988D01*
X168195644Y-47186434D01*
X168897188Y-47887978D01*
X168911132Y-47895592D01*
X168912965Y-47895461D01*
X168919580Y-47891210D01*
X169625077Y-47185713D01*
X169631507Y-47173938D01*
X169622211Y-47161923D01*
X169571006Y-47126069D01*
X169561511Y-47120586D01*
X169364053Y-47028510D01*
X169353761Y-47024764D01*
X169143312Y-46968375D01*
X169132519Y-46966472D01*
X168915475Y-46947483D01*
X168904525Y-46947483D01*
X168687481Y-46966472D01*
X168676688Y-46968375D01*
X168466239Y-47024764D01*
X168455947Y-47028510D01*
X168258489Y-47120586D01*
X168248994Y-47126069D01*
X168196952Y-47162509D01*
X168188576Y-47172988D01*
X159478886Y-47172988D01*
X159463920Y-47162509D01*
X159406749Y-47122477D01*
X159401767Y-47120154D01*
X159401762Y-47120151D01*
X159204225Y-47028039D01*
X159204224Y-47028039D01*
X159199243Y-47025716D01*
X159193935Y-47024294D01*
X159193933Y-47024293D01*
X158983402Y-46967881D01*
X158983400Y-46967881D01*
X158978087Y-46966457D01*
X158750000Y-46946502D01*
X158521913Y-46966457D01*
X158516600Y-46967881D01*
X158516598Y-46967881D01*
X158306067Y-47024293D01*
X158306065Y-47024294D01*
X158300757Y-47025716D01*
X158295776Y-47028039D01*
X158295775Y-47028039D01*
X158098238Y-47120151D01*
X158098233Y-47120154D01*
X158093251Y-47122477D01*
X158036080Y-47162509D01*
X157910211Y-47250643D01*
X157910208Y-47250645D01*
X157905700Y-47253802D01*
X157743802Y-47415700D01*
X157612477Y-47603251D01*
X157610154Y-47608233D01*
X157610151Y-47608238D01*
X157610034Y-47608489D01*
X157515716Y-47810757D01*
X157514294Y-47816065D01*
X157514293Y-47816067D01*
X157493019Y-47895461D01*
X157456457Y-48031913D01*
X157436502Y-48260000D01*
X144018000Y-48260000D01*
X144018000Y-41274000D01*
X144038002Y-41205879D01*
X144091658Y-41159386D01*
X144144000Y-41148000D01*
X206376000Y-41148000D01*
X206444121Y-41168002D01*
G37*
%TD.AperFunction*%
%TD*%
M02*
